ffmpeg version 4.4.2-0ubuntu0.22.04.1 Copyright (c) 2000-2021 the FFmpeg developers
  built with gcc 11 (Ubuntu 11.2.0-19ubuntu1)
  configuration: --prefix=/usr --extra-version=0ubuntu0.22.04.1 --toolchain=hardened --libdir=/usr/lib/x86_64-linux-gnu --incdir=/usr/include/x86_64-linux-gnu --arch=amd64 --enable-gpl --disable-stripping --enable-gnutls --enable-ladspa --enable-libaom --enable-libass --enable-libbluray --enable-libbs2b --enable-libcaca --enable-libcdio --enable-libcodec2 --enable-libdav1d --enable-libflite --enable-libfontconfig --enable-libfreetype --enable-libfribidi --enable-libgme --enable-libgsm --enable-libjack --enable-libmp3lame --enable-libmysofa --enable-libopenjpeg --enable-libopenmpt --enable-libopus --enable-libpulse --enable-librabbitmq --enable-librubberband --enable-libshine --enable-libsnappy --enable-libsoxr --enable-libspeex --enable-libsrt --enable-libssh --enable-libtheora --enable-libtwolame --enable-libvidstab --enable-libvorbis --enable-libvpx --enable-libwebp --enable-libx265 --enable-libxml2 --enable-libxvid --enable-libzimg --enable-libzmq --enable-libzvbi --enable-lv2 --enable-omx --enable-openal --enable-opencl --enable-opengl --enable-sdl2 --enable-pocketsphinx --enable-librsvg --enable-libmfx --enable-libdc1394 --enable-libdrm --enable-libiec61883 --enable-chromaprint --enable-frei0r --enable-libx264 --enable-shared
  libavutil      56. 70.100 / 56. 70.100
  libavcodec     58.134.100 / 58.134.100
  libavformat    58. 76.100 / 58. 76.100
  libavdevice    58. 13.100 / 58. 13.100
  libavfilter     7.110.100 /  7.110.100
  libswscale      5.  9.100 /  5.  9.100
  libswresample   3.  9.100 /  3.  9.100
  libpostproc    55.  9.100 / 55.  9.100
Input #0, mov,mp4,m4a,3gp,3g2,mj2, from 'LoopShorts.mp4':
  Metadata:
    major_brand     : isom
    minor_version   : 512
    compatible_brands: isomiso2avc1mp41
    encoder         : Lavf58.76.100
  Duration: 00:00:07.15, start: 0.000000, bitrate: 105 kb/s
  Stream #0:0(und): Audio: aac (HE-AAC) (mp4a / 0x6134706D), 44100 Hz, stereo, fltp, 48 kb/s (default)
    Metadata:
      handler_name    : SoundHandler
      vendor_id       : [0][0][0][0]
  Stream #0:1(und): Video: h264 (Main) (avc1 / 0x31637661), yuv420p(tv, bt709), 144x256 [SAR 1:1 DAR 9:16], 49 kb/s, 30 fps, 30 tbr, 90k tbn, 60 tbc (default)
    Metadata:
      handler_name    : VideoHandler
      vendor_id       : [0][0][0][0]
Stream mapping:
  Stream #0:1 -> #0:0 (h264 (native) -> h264 (libx264))
  Stream #0:0 -> #0:1 (aac (native) -> aac (native))
Press [q] to stop, [?] for help
[libx264 @ 0x5fab35b73580] using SAR=1/1
[libx264 @ 0x5fab35b73580] using cpu capabilities: MMX2 SSE2Fast SSSE3 SSE4.2 AVX FMA3 BMI2 AVX2
[libx264 @ 0x5fab35b73580] profile High, level 2.1, 4:2:0, 8-bit
[libx264 @ 0x5fab35b73580] 264 - core 163 r3060 5db6aa6 - H.264/MPEG-4 AVC codec - Copyleft 2003-2021 - http://www.videolan.org/x264.html - options: cabac=1 ref=1 deblock=1:0:0 analyse=0x3:0x3 me=dia subme=1 psy=1 psy_rd=1.00:0.00 mixed_ref=0 me_range=16 chroma_me=1 trellis=0 8x8dct=1 cqm=0 deadzone=21,11 fast_pskip=1 chroma_qp_offset=0 threads=6 lookahead_threads=1 sliced_threads=0 nr=0 decimate=1 interlaced=0 bluray_compat=0 constrained_intra=0 bframes=3 b_pyramid=2 b_adapt=1 b_bias=0 direct=1 weightb=1 open_gop=0 weightp=1 keyint=60 keyint_min=6 scenecut=40 intra_refresh=0 rc_lookahead=0 rc=cbr mbtree=0 bitrate=2000 ratetol=1.0 qcomp=0.60 qpmin=0 qpmax=69 qpstep=4 vbv_maxrate=2000 vbv_bufsize=4000 nal_hrd=none filler=0 ip_ratio=1.40 pb_ratio=1.30 aq=1:1.00
Output #0, flv, to 'rtmp://a.rtmp.youtube.com/live2/12pj-fde0-8qru-z4q5-aqdd':
  Metadata:
    major_brand     : isom
    minor_version   : 512
    compatible_brands: isomiso2avc1mp41
    encoder         : Lavf58.76.100
  Stream #0:0(und): Video: h264 ([7][0][0][0] / 0x0007), yuv420p(tv, bt709, progressive), 144x256 [SAR 1:1 DAR 9:16], q=2-31, 2000 kb/s, 30 fps, 1k tbn (default)
    Metadata:
      handler_name    : VideoHandler
      vendor_id       : [0][0][0][0]
      encoder         : Lavc58.134.100 libx264
    Side data:
      cpb: bitrate max/min/avg: 2000000/0/2000000 buffer size: 4000000 vbv_delay: N/A
  Stream #0:1(und): Audio: aac (LC) ([10][0][0][0] / 0x000A), 44100 Hz, stereo, fltp, 128 kb/s (default)
    Metadata:
      handler_name    : SoundHandler
      vendor_id       : [0][0][0][0]
      encoder         : Lavc58.134.100 aac
frame=    1 fps=0.0 q=0.0 size=       0kB time=00:00:00.11 bitrate=  33.7kbits/s speed=0.609x    frame=   15 fps=0.0 q=3.0 size=      11kB time=00:00:00.62 bitrate= 137.5kbits/s speed=0.907x    frame=   30 fps= 25 q=2.0 size=      46kB time=00:00:01.13 bitrate= 327.7kbits/s speed=0.955x    frame=   46 fps= 27 q=0.0 size=     110kB time=00:00:01.60 bitrate= 564.1kbits/s speed=0.947x    frame=   61 fps= 28 q=1.0 size=     228kB time=00:00:02.11 bitrate= 882.3kbits/s speed=0.963x    frame=   76 fps= 28 q=2.0 size=     384kB time=00:00:02.62 bitrate=1198.2kbits/s speed=0.974x    frame=   90 fps= 28 q=0.0 size=     499kB time=00:00:03.13 bitrate=1304.4kbits/s speed=0.981x    frame=  106 fps= 29 q=0.0 size=     657kB time=00:00:03.64 bitrate=1475.7kbits/s speed=0.984x    frame=  121 fps= 29 q=2.0 size=     837kB time=00:00:04.15 bitrate=1650.0kbits/s speed=0.988x    frame=  136 fps= 29 q=4.0 size=    1000kB time=00:00:04.66 bitrate=1755.3kbits/s speed=0.991x    frame=  152 fps= 29 q=2.0 size=    1128kB time=00:00:05.13 bitrate=1800.2kbits/s speed=0.984x    frame=  166 fps= 29 q=0.0 size=    1213kB time=00:00:05.64 bitrate=1761.0kbits/s speed=0.987x    frame=  182 fps= 29 q=2.0 size=    1293kB time=00:00:06.15 bitrate=1721.8kbits/s speed=0.989x    frame=  196 fps= 29 q=0.0 size=    1360kB time=00:00:06.66 bitrate=1672.1kbits/s speed=0.991x    frame=  211 fps= 29 q=2.0 size=    1414kB time=00:00:07.17 bitrate=1614.4kbits/s speed=0.993x    frame=  223 fps= 29 q=0.0 size=    1438kB time=00:00:07.68 bitrate=1532.5kbits/s speed=0.994x    frame=  239 fps= 29 q=0.0 size=    1483kB time=00:00:08.15 bitrate=1491.1kbits/s speed=0.989x    frame=  254 fps= 29 q=2.0 size=    1547kB time=00:00:08.70 bitrate=1455.8kbits/s speed=0.995x    frame=  269 fps= 29 q=2.0 size=    1646kB time=00:00:09.21 bitrate=1463.0kbits/s speed=0.996x    frame=  284 fps= 29 q=1.0 size=    1795kB time=00:00:09.68 bitrate=1518.8kbits/s speed=0.993x    frame=  298 fps= 29 q=2.0 size=    1922kB time=00:00:10.19 bitrate=1544.9kbits/s speed=0.994x    frame=  314 fps= 29 q=0.0 size=    2077kB time=00:00:10.70 bitrate=1589.3kbits/s speed=0.995x    frame=  329 fps= 29 q=2.0 size=    2259kB time=00:00:11.21 bitrate=1649.8kbits/s speed=0.995x    frame=  344 fps= 29 q=2.0 size=    2418kB time=00:00:11.72 bitrate=1689.1kbits/s speed=0.996x    frame=  360 fps= 29 q=2.0 size=    2551kB time=00:00:12.19 bitrate=1714.7kbits/s speed=0.993x    frame=  375 fps= 29 q=1.0 size=    2663kB time=00:00:12.74 bitrate=1711.2kbits/s speed=0.997x    frame=  390 fps= 29 q=0.0 size=    2738kB time=00:00:13.25 bitrate=1691.5kbits/s speed=0.998x    frame=  405 fps= 29 q=0.0 size=    2802kB time=00:00:13.72 bitrate=1672.8kbits/s speed=0.995x    frame=  418 fps= 29 q=0.0 size=    2849kB time=00:00:14.23 bitrate=1639.7kbits/s speed=0.995x    frame=  431 fps= 29 q=1.0 size=    2881kB time=00:00:14.74 bitrate=1600.9kbits/s speed=0.996x    frame=  447 fps= 29 q=2.0 size=    2935kB time=00:00:15.25 bitrate=1576.0kbits/s speed=0.997x    frame=  463 fps= 29 q=0.0 size=    2991kB time=00:00:15.76 bitrate=1554.1kbits/s speed=0.996x    frame=  478 fps= 29 q=0.0 size=    3084kB time=00:00:16.27 bitrate=1552.2kbits/s speed=0.996x    frame=  493 fps= 29 q=2.0 size=    3223kB time=00:00:16.74 bitrate=1577.1kbits/s speed=0.993x    frame=  508 fps= 29 q=2.0 size=    3375kB time=00:00:17.29 bitrate=1598.1kbits/s speed=0.997x    frame=  523 fps= 29 q=1.0 size=    3511kB time=00:00:17.81 bitrate=1614.8kbits/s speed=0.997x    frame=  539 fps= 29 q=0.0 size=    3695kB time=00:00:18.32 bitrate=1652.0kbits/s speed=0.997x    frame=  554 fps= 29 q=0.0 size=    3862kB time=00:00:18.83 bitrate=1679.9kbits/s speed=0.998x    frame=  569 fps= 29 q=2.0 size=    3995kB time=00:00:19.34 bitrate=1692.1kbits/s speed=0.998x    frame=  585 fps= 29 q=2.0 size=    4100kB time=00:00:19.80 bitrate=1695.9kbits/s speed=0.996x    frame=  600 fps= 29 q=2.0 size=    4183kB time=00:00:20.31 bitrate=1686.7kbits/s speed=0.996x    frame=  615 fps= 29 q=0.0 size=    4252kB time=00:00:20.87 bitrate=1668.6kbits/s speed=0.998x    frame=  628 fps= 29 q=2.0 size=    4300kB time=00:00:21.38 bitrate=1647.1kbits/s speed=0.999x    frame=  642 fps= 29 q=1.0 size=    4334kB time=00:00:21.85 bitrate=1624.7kbits/s speed=0.997x    frame=  656 fps= 29 q=0.0 size=    4368kB time=00:00:22.36 bitrate=1600.3kbits/s speed=0.997x    frame=  672 fps= 29 q=0.0 size=    4423kB time=00:00:22.87 bitrate=1584.2kbits/s speed=0.997x    frame=  687 fps= 29 q=0.0 size=    4517kB time=00:00:23.38 bitrate=1582.4kbits/s speed=0.998x    frame=  702 fps= 29 q=1.0 size=    4658kB time=00:00:23.89 bitrate=1597.0kbits/s speed=0.998x    frame=  718 fps= 29 q=1.0 size=    4810kB time=00:00:24.35 bitrate=1617.5kbits/s speed=0.996x    frame=  733 fps= 29 q=2.0 size=    4939kB time=00:00:24.91 bitrate=1624.0kbits/s speed=0.998x    frame=  748 fps= 29 q=2.0 size=    5134kB time=00:00:25.42 bitrate=1654.1kbits/s speed=0.998x    frame=  764 fps= 29 q=0.0 size=    5305kB time=00:00:25.89 bitrate=1678.6kbits/s speed=0.997x    frame=  779 fps= 29 q=2.0 size=    5436kB time=00:00:26.40 bitrate=1686.6kbits/s speed=0.997x    frame=  793 fps= 29 q=2.0 size=    5538kB time=00:00:26.86 bitrate=1688.6kbits/s speed=0.996x    frame=  808 fps= 29 q=2.0 size=    5630kB time=00:00:27.42 bitrate=1681.7kbits/s speed=0.998x    frame=  824 fps= 29 q=0.0 size=    5697kB time=00:00:27.93 bitrate=1670.8kbits/s speed=0.998x    frame=  839 fps= 29 q=2.0 size=    5755kB time=00:00:28.44 bitrate=1657.5kbits/s speed=0.998x    frame=  851 fps= 29 q=2.0 size=    5786kB time=00:00:28.90 bitrate=1639.5kbits/s speed=0.997x    frame=  866 fps= 29 q=2.0 size=    5831kB time=00:00:29.42 bitrate=1623.6kbits/s speed=0.997x    frame=  881 fps= 29 q=0.0 size=    5882kB time=00:00:29.93 bitrate=1609.8kbits/s speed=0.998x    frame=  896 fps= 29 q=0.0 size=    5962kB time=00:00:30.44 bitrate=1604.5kbits/s speed=0.998x    frame=  911 fps= 29 q=1.0 size=    6093kB time=00:00:30.95 bitrate=1612.7kbits/s speed=0.998x    frame=  926 fps= 29 q=0.0 size=    6244kB time=00:00:31.46 bitrate=1625.8kbits/s speed=0.998x    frame=  941 fps= 29 q=2.0 size=    6379kB time=00:00:31.97 bitrate=1634.3kbits/s speed=0.998x    frame=  957 fps= 29 q=2.0 size=    6548kB time=00:00:32.43 bitrate=1653.7kbits/s speed=0.997x    frame=  972 fps= 29 q=3.0 size=    6727kB time=00:00:32.99 bitrate=1670.0kbits/s speed=0.999x    frame=  987 fps= 29 q=1.0 size=    6877kB time=00:00:33.50 bitrate=1681.4kbits/s speed=0.999x    frame= 1003 fps= 29 q=1.0 size=    6990kB time=00:00:33.97 bitrate=1685.7kbits/s speed=0.997x    frame= 1018 fps= 29 q=0.0 size=    7074kB time=00:00:34.48 bitrate=1680.7kbits/s speed=0.998x    frame= 1033 fps= 29 q=0.0 size=    7140kB time=00:00:35.03 bitrate=1669.4kbits/s speed=0.999x    frame= 1048 fps= 29 q=0.0 size=    7206kB time=00:00:35.55 bitrate=1660.6kbits/s speed=0.999x    frame= 1060 fps= 29 q=0.0 size=    7240kB time=00:00:36.01 bitrate=1646.8kbits/s speed=0.998x    frame= 1075 fps= 29 q=1.0 size=    7273kB time=00:00:36.52 bitrate=1631.3kbits/s speed=0.998x    frame= 1091 fps= 29 q=0.0 size=    7324kB time=00:00:37.03 bitrate=1620.0kbits/s speed=0.998x    frame= 1106 fps= 29 q=2.0 size=    7412kB time=00:00:37.54 bitrate=1617.3kbits/s speed=0.998x    frame= 1121 fps= 29 q=2.0 size=    7543kB time=00:00:38.05 bitrate=1623.7kbits/s speed=0.998x    frame= 1135 fps= 29 q=0.0 size=    7674kB time=00:00:38.56 bitrate=1629.9kbits/s speed=0.998x    frame= 1152 fps= 29 q=2.0 size=    7827kB time=00:00:39.07 bitrate=1640.7kbits/s speed=0.998x    frame= 1166 fps= 29 q=0.0 size=    7987kB time=00:00:39.59 bitrate=1652.6kbits/s speed=0.998x    frame= 1181 fps= 29 q=2.0 size=    8161kB time=00:00:40.10 bitrate=1667.2kbits/s speed=0.999x    frame= 1197 fps= 29 q=2.0 size=    8308kB time=00:00:40.61 bitrate=1675.8kbits/s speed=0.999x    frame= 1212 fps= 29 q=2.0 size=    8425kB time=00:00:41.12 bitrate=1678.3kbits/s speed=0.999x    frame= 1227 fps= 29 q=1.0 size=    8518kB time=00:00:41.63 bitrate=1676.0kbits/s speed=0.999x    frame= 1243 fps= 29 q=0.0 size=    8590kB time=00:00:42.09 bitrate=1671.5kbits/s speed=0.998x    frame= 1258 fps= 29 q=2.0 size=    8648kB time=00:00:42.60 bitrate=1662.6kbits/s speed=0.998x    frame= 1269 fps= 29 q=0.0 size=    8682kB time=00:00:43.11 bitrate=1649.5kbits/s speed=0.998x    frame= 1284 fps= 29 q=0.0 size=    8727kB time=00:00:43.63 bitrate=1638.6kbits/s speed=0.999x    frame= 1299 fps= 29 q=0.0 size=    8771kB time=00:00:44.14 bitrate=1627.9kbits/s speed=0.999x    frame= 1314 fps= 29 q=2.0 size=    8835kB time=00:00:44.65 bitrate=1620.9kbits/s speed=0.999x    frame= 1330 fps= 29 q=0.0 size=    8966kB time=00:00:45.16 bitrate=1626.3kbits/s speed=0.999x    frame= 1345 fps= 29 q=2.0 size=    9124kB time=00:00:45.67 bitrate=1636.4kbits/s speed=0.999x    frame= 1360 fps= 29 q=2.0 size=    9259kB time=00:00:46.18 bitrate=1642.3kbits/s speed=0.999x    frame= 1375 fps= 29 q=1.0 size=    9410kB time=00:00:46.64 bitrate=1652.5kbits/s speed=0.998x    frame= 1391 fps= 29 q=2.0 size=    9597kB time=00:00:47.16 bitrate=1667.1kbits/s speed=0.999x    frame= 1406 fps= 29 q=0.0 size=    9745kB time=00:00:47.67 bitrate=1674.6kbits/s speed=0.999x    frame= 1420 fps= 29 q=2.0 size=    9855kB time=00:00:48.18 bitrate=1675.6kbits/s speed=0.999x    frame= 1436 fps= 29 q=2.0 size=    9953kB time=00:00:48.69 bitrate=1674.5kbits/s speed=0.999x    frame= 1451 fps= 29 q=1.0 size=   10023kB time=00:00:49.20 bitrate=1668.7kbits/s speed=0.999x    frame= 1466 fps= 29 q=2.0 size=   10087kB time=00:00:49.71 bitrate=1662.2kbits/s speed=0.999x    frame= 1478 fps= 29 q=2.0 size=   10127kB time=00:00:50.22 bitrate=1651.8kbits/s speed=0.999x    frame= 1493 fps= 29 q=0.0 size=   10164kB time=00:00:50.73 bitrate=1641.1kbits/s speed=0.999x    frame= 1508 fps= 29 q=2.0 size=   10203kB time=00:00:51.20 bitrate=1632.4kbits/s speed=0.999x    frame= 1523 fps= 29 q=0.0 size=   10272kB time=00:00:51.71 bitrate=1627.3kbits/s speed=0.999x    frame= 1538 fps= 29 q=1.0 size=   10389kB time=00:00:52.22 bitrate=1629.7kbits/s speed=0.999x    frame= 1553 fps= 29 q=0.0 size=   10529kB time=00:00:52.73 bitrate=1635.7kbits/s speed=0.999x    frame= 1569 fps= 29 q=0.0 size=   10671kB time=00:00:53.24 bitrate=1641.9kbits/s speed=0.999x    frame= 1584 fps= 29 q=2.0 size=   10838kB time=00:00:53.75 bitrate=1651.8kbits/s speed=0.999x    frame= 1599 fps= 29 q=2.0 size=   11020kB time=00:00:54.26 bitrate=1663.6kbits/s speed=0.999x    frame= 1615 fps= 29 q=2.0 size=   11178kB time=00:00:54.72 bitrate=1673.1kbits/s speed=0.998x    frame= 1630 fps= 29 q=0.0 size=   11304kB time=00:00:55.24 bitrate=1676.4kbits/s speed=0.999x    frame= 1645 fps= 29 q=2.0 size=   11398kB time=00:00:55.75 bitrate=1674.9kbits/s speed=0.999x    frame= 1660 fps= 29 q=2.0 size=   11473kB time=00:00:56.26 bitrate=1670.6kbits/s speed=0.999x    frame= 1675 fps= 29 q=0.0 size=   11532kB time=00:00:56.77 bitrate=1664.1kbits/s speed=0.999x    frame= 1688 fps= 29 q=2.0 size=   11578kB time=00:00:57.28 bitrate=1655.7kbits/s speed=0.999x    frame= 1702 fps= 29 q=2.0 size=   11626kB time=00:00:57.74 bitrate=1649.2kbits/s speed=0.998x    frame= 1717 fps= 29 q=1.0 size=   11661kB time=00:00:58.30 bitrate=1638.3kbits/s speed=0.999x    frame= 1732 fps= 29 q=0.0 size=   11719kB time=00:00:58.81 bitrate=1632.3kbits/s speed=0.999x    frame= 1747 fps= 29 q=2.0 size=   11824kB time=00:00:59.28 bitrate=1634.0kbits/s speed=0.999x    frame= 1763 fps= 29 q=1.0 size=   11994kB time=00:00:59.79 bitrate=1643.3kbits/s speed=0.999x    frame= 1777 fps= 29 q=2.0 size=   12115kB time=00:01:00.30 bitrate=1645.8kbits/s speed=0.999x    frame= 1792 fps= 29 q=2.0 size=   12261kB time=00:01:00.81 bitrate=1651.6kbits/s speed=0.999x    frame= 1807 fps= 29 q=0.0 size=   12438kB time=00:01:01.32 bitrate=1661.6kbits/s speed=0.999x    frame= 1823 fps= 29 q=1.0 size=   12607kB time=00:01:01.78 bitrate=1671.5kbits/s speed=0.999x    frame= 1838 fps= 29 q=0.0 size=   12733kB time=00:01:02.34 bitrate=1673.0kbits/s speed=0.999x    frame= 1853 fps= 29 q=2.0 size=   12830kB time=00:01:02.85 bitrate=1672.2kbits/s speed=   1x    frame= 1868 fps= 29 q=2.0 size=   12910kB time=00:01:03.32 bitrate=1670.2kbits/s speed=0.999x    frame= 1883 fps= 29 q=0.0 size=   12974kB time=00:01:03.83 bitrate=1665.0kbits/s speed=0.999x    frame= 1899 fps= 29 q=2.0 size=   13031kB time=00:01:04.29 bitrate=1660.3kbits/s speed=0.998x    frame= 1910 fps= 29 q=2.0 size=   13054kB time=00:01:04.85 bitrate=1649.0kbits/s speed=0.999x    frame= 1925 fps= 29 q=2.0 size=   13094kB time=00:01:05.36 bitrate=1641.0kbits/s speed=0.999x    frame= 1940 fps= 29 q=0.0 size=   13153kB time=00:01:05.87 bitrate=1635.6kbits/s speed=0.999x    frame= 1956 fps= 29 q=1.0 size=   13254kB time=00:01:06.33 bitrate=1636.7kbits/s speed=0.999x    frame= 1971 fps= 29 q=0.0 size=   13397kB time=00:01:06.85 bitrate=1641.7kbits/s speed=0.999x    frame= 1986 fps= 29 q=2.0 size=   13538kB time=00:01:07.36 bitrate=1646.4kbits/s speed=0.999x    frame= 2000 fps= 29 q=2.0 size=   13673kB time=00:01:07.87 bitrate=1650.3kbits/s speed=0.999x    frame= 2016 fps= 29 q=0.0 size=   13866kB time=00:01:08.38 bitrate=1661.0kbits/s speed=0.999x    frame= 2031 fps= 29 q=1.0 size=   14023kB time=00:01:08.89 bitrate=1667.4kbits/s speed=0.999x    frame= 2046 fps= 29 q=0.0 size=   14148kB time=00:01:09.40 bitrate=1669.9kbits/s speed=0.999x    frame= 2062 fps= 29 q=0.0 size=   14264kB time=00:01:09.86 bitrate=1672.4kbits/s speed=0.999x    frame= 2077 fps= 29 q=2.0 size=   14345kB time=00:01:10.42 bitrate=1668.6kbits/s speed=0.999x    frame= 2092 fps= 29 q=0.0 size=   14409kB time=00:01:10.89 bitrate=1665.0kbits/s speed=0.999x    frame= 2105 fps= 29 q=2.0 size=   14459kB time=00:01:11.40 bitrate=1658.9kbits/s speed=0.999x    frame= 2118 fps= 29 q=0.0 size=   14503kB time=00:01:11.91 bitrate=1652.1kbits/s speed=0.999x    frame= 2133 fps= 29 q=0.0 size=   14538kB time=00:01:12.42 bitrate=1644.4kbits/s speed=0.999x    frame= 2149 fps= 29 q=0.0 size=   14592kB time=00:01:12.88 bitrate=1640.1kbits/s speed=0.999x    frame= 2164 fps= 29 q=0.0 size=   14678kB time=00:01:13.44 bitrate=1637.1kbits/s speed=0.999x    frame= 2179 fps= 29 q=1.0 size=   14830kB time=00:01:13.95 bitrate=1642.7kbits/s speed=   1x    frame= 2194 fps= 29 q=0.0 size=   14969kB time=00:01:14.42 bitrate=1647.7kbits/s speed=0.999x    frame= 2210 fps= 29 q=0.0 size=   15112kB time=00:01:14.93 bitrate=1652.1kbits/s speed=0.999x    frame= 2225 fps= 29 q=0.0 size=   15282kB time=00:01:15.44 bitrate=1659.5kbits/s speed=0.999x    frame= 2239 fps= 29 q=2.0 size=   15447kB time=00:01:15.95 bitrate=1666.0kbits/s speed=0.999x    frame= 2255 fps= 29 q=2.0 size=   15585kB time=00:01:16.46 bitrate=1669.8kbits/s speed=0.999x    frame= 2270 fps= 29 q=1.0 size=   15697kB time=00:01:16.97 bitrate=1670.5kbits/s speed=0.999x    frame= 2285 fps= 29 q=0.0 size=   15777kB time=00:01:17.48 bitrate=1668.0kbits/s speed=0.999x    frame= 2301 fps= 29 q=0.0 size=   15856kB time=00:01:17.94 bitrate=1666.4kbits/s speed=0.999x    frame= 2316 fps= 29 q=2.0 size=   15912kB time=00:01:18.46 bitrate=1661.4kbits/s speed=0.999x    frame= 2326 fps= 29 q=0.0 size=   15939kB time=00:01:18.97 bitrate=1653.4kbits/s speed=0.999x    frame= 2342 fps= 29 q=2.0 size=   15975kB time=00:01:19.48 bitrate=1646.5kbits/s speed=0.999x    frame= 2357 fps= 29 q=0.0 size=   16032kB time=00:01:19.99 bitrate=1641.8kbits/s speed=0.999x    frame= 2372 fps= 29 q=2.0 size=   16108kB time=00:01:20.50 bitrate=1639.2kbits/s speed=0.999x    frame= 2388 fps= 29 q=2.0 size=   16245kB time=00:01:21.01 bitrate=1642.7kbits/s speed=0.999x    frame= 2403 fps= 29 q=2.0 size=   16392kB time=00:01:21.52 bitrate=1647.1kbits/s speed=0.999x    frame= 2418 fps= 29 q=0.0 size=   16527kB time=00:01:22.03 bitrate=1650.4kbits/s speed=0.999x    frame= 2434 fps= 29 q=0.0 size=   16709kB time=00:01:22.50 bitrate=1659.2kbits/s speed=0.999x    frame= 2449 fps= 29 q=1.0 size=   16885kB time=00:01:23.01 bitrate=1666.3kbits/s speed=0.999x    frame= 2464 fps= 29 q=0.0 size=   17015kB time=00:01:23.52 bitrate=1668.9kbits/s speed=0.999x    frame= 2479 fps= 29 q=1.0 size=   17143kB time=00:01:24.03 bitrate=1671.2kbits/s speed=0.999x    frame= 2493 fps= 29 q=2.0 size=   17218kB time=00:01:24.54 bitrate=1668.4kbits/s speed=0.999x    frame= 2509 fps= 29 q=0.0 size=   17294kB time=00:01:25.05 bitrate=1665.6kbits/s speed=0.999x    frame= 2524 fps= 29 q=2.0 size=   17354kB time=00:01:25.56 bitrate=1661.4kbits/s speed=0.999x    frame= 2536 fps= 29 q=2.0 size=   17401kB time=00:01:26.07 bitrate=1656.1kbits/s speed=0.999x    frame= 2551 fps= 29 q=0.0 size=   17434kB time=00:01:26.58 bitrate=1649.4kbits/s speed=   1x    frame= 2567 fps= 29 q=0.0 size=   17483kB time=00:01:27.05 bitrate=1645.3kbits/s speed=0.999x    frame= 2582 fps= 29 q=0.0 size=   17554kB time=00:01:27.56 bitrate=1642.3kbits/s speed=0.999x    frame= 2596 fps= 29 q=0.0 size=   17679kB time=00:01:28.07 bitrate=1644.4kbits/s speed=0.999x    frame= 2611 fps= 29 q=2.0 size=   17826kB time=00:01:28.58 bitrate=1648.5kbits/s speed=0.999x    frame= 2626 fps= 29 q=2.0 size=   17960kB time=00:01:29.09 bitrate=1651.4kbits/s speed=0.999x    frame= 2642 fps= 29 q=2.0 size=   18124kB time=00:01:29.60 bitrate=1656.9kbits/s speed=0.999x    frame= 2657 fps= 29 q=3.0 size=   18306kB time=00:01:30.11 bitrate=1664.1kbits/s speed=0.999x    frame= 2672 fps= 29 q=2.0 size=   18446kB time=00:01:30.62 bitrate=1667.4kbits/s speed=   1x    frame= 2688 fps= 29 q=2.0 size=   18570kB time=00:01:31.09 bitrate=1670.0kbits/s speed=0.999x    frame= 2703 fps= 29 q=1.0 size=   18660kB time=00:01:31.60 bitrate=1668.7kbits/s speed=0.999x    frame= 2717 fps= 29 q=2.0 size=   18735kB time=00:01:32.11 bitrate=1666.2kbits/s speed=0.999x    frame= 2732 fps= 29 q=2.0 size=   18789kB time=00:01:32.62 bitrate=1661.8kbits/s speed=0.999x    frame= 2744 fps= 29 q=2.0 size=   18830kB time=00:01:33.13 bitrate=1656.2kbits/s speed=0.999x    frame= 2759 fps= 29 q=0.0 size=   18866kB time=00:01:33.64 bitrate=1650.4kbits/s speed=   1x    frame= 2775 fps= 29 q=0.0 size=   18918kB time=00:01:34.11 bitrate=1646.8kbits/s speed=0.999x    frame= 2790 fps= 29 q=1.0 size=   18983kB time=00:01:34.62 bitrate=1643.5kbits/s speed=0.999x    frame= 2804 fps= 29 q=1.0 size=   19093kB time=00:01:35.13 bitrate=1644.2kbits/s speed=0.999x    frame= 2819 fps= 29 q=0.0 size=   19233kB time=00:01:35.64 bitrate=1647.4kbits/s speed=0.999x    frame= 2835 fps= 29 q=1.0 size=   19391kB time=00:01:36.10 bitrate=1652.9kbits/s speed=0.999x    frame= 2850 fps= 29 q=0.0 size=   19535kB time=00:01:36.61 bitrate=1656.3kbits/s speed=0.999x    frame= 2865 fps= 29 q=2.0 size=   19714kB time=00:01:37.12 bitrate=1662.7kbits/s speed=0.999x    frame= 2879 fps= 29 q=1.0 size=   19858kB time=00:01:37.64 bitrate=1666.1kbits/s speed=0.999x    frame= 2895 fps= 29 q=1.0 size=   19995kB time=00:01:38.15 bitrate=1668.8kbits/s speed=0.999x    frame= 2910 fps= 29 q=0.0 size=   20082kB time=00:01:38.66 bitrate=1667.4kbits/s speed=   1x    frame= 2925 fps= 29 q=2.0 size=   20158kB time=00:01:39.17 bitrate=1665.1kbits/s speed=   1x    frame= 2941 fps= 29 q=0.0 size=   20221kB time=00:01:39.63 bitrate=1662.6kbits/s speed=0.999x    frame= 2954 fps= 29 q=2.0 size=   20277kB time=00:01:40.19 bitrate=1657.9kbits/s speed=   1x    frame= 2967 fps= 29 q=1.0 size=   20311kB time=00:01:40.65 bitrate=1653.0kbits/s speed=0.999x    frame= 2982 fps= 29 q=0.0 size=   20346kB time=00:01:41.16 bitrate=1647.5kbits/s speed=0.999x    frame= 2997 fps= 29 q=2.0 size=   20401kB time=00:01:41.68 bitrate=1643.7kbits/s speed=0.999x    frame= 3012 fps= 29 q=2.0 size=   20503kB time=00:01:42.19 bitrate=1643.6kbits/s speed=   1x    frame= 3028 fps= 29 q=2.0 size=   20672kB time=00:01:42.65 bitrate=1649.7kbits/s speed=0.999x    frame= 3043 fps= 29 q=1.0 size=   20808kB time=00:01:43.16 bitrate=1652.3kbits/s speed=0.999x    frame= 3058 fps= 29 q=0.0 size=   20946kB time=00:01:43.67 bitrate=1655.0kbits/s speed=0.999x    frame= 3072 fps= 29 q=3.0 size=   21114kB time=00:01:44.18 bitrate=1660.1kbits/s speed=0.999x    frame= 3087 fps= 29 q=2.0 size=   21283kB time=00:01:44.69 bitrate=1665.3kbits/s speed=0.999x    frame= 3103 fps= 29 q=2.0 size=   21417kB time=00:01:45.21 bitrate=1667.6kbits/s speed=   1x    frame= 3118 fps= 29 q=1.0 size=   21516kB time=00:01:45.72 bitrate=1667.3kbits/s speed=   1x    frame= 3133 fps= 29 q=2.0 size=   21594kB time=00:01:46.23 bitrate=1665.2kbits/s speed=   1x    frame= 3149 fps= 29 q=0.0 size=   21667kB time=00:01:46.69 bitrate=1663.6kbits/s speed=0.999x    frame= 3161 fps= 29 q=0.0 size=   21712kB time=00:01:47.20 bitrate=1659.1kbits/s speed=0.999x    frame= 3175 fps= 29 q=2.0 size=   21746kB time=00:01:47.71 bitrate=1653.8kbits/s speed=0.999x    frame= 3190 fps= 29 q=0.0 size=   21785kB time=00:01:48.22 bitrate=1648.9kbits/s speed=0.999x    frame= 3205 fps= 29 q=0.0 size=   21846kB time=00:01:48.73 bitrate=1645.8kbits/s speed=   1x    frame= 3220 fps= 29 q=2.0 size=   21937kB time=00:01:49.25 bitrate=1644.9kbits/s speed=   1x    frame= 3236 fps= 29 q=2.0 size=   22086kB time=00:01:49.71 bitrate=1649.1kbits/s speed=0.999x    frame= 3251 fps= 29 q=1.0 size=   22228kB time=00:01:50.22 bitrate=1652.0kbits/s speed=0.999x    frame= 3266 fps= 29 q=0.0 size=   22372kB time=00:01:50.73 bitrate=1655.1kbits/s speed=0.999x    frame= 3281 fps= 29 q=2.0 size=   22557kB time=00:01:51.24 bitrate=1661.0kbits/s speed=0.999x    frame= 3296 fps= 29 q=0.0 size=   22719kB time=00:01:51.75 bitrate=1665.3kbits/s speed=0.999x    frame= 3311 fps= 29 q=1.0 size=   22849kB time=00:01:52.26 bitrate=1667.2kbits/s speed=   1x    frame= 3326 fps= 29 q=0.0 size=   22962kB time=00:01:52.77 bitrate=1667.9kbits/s speed=   1x    frame= 3342 fps= 29 q=0.0 size=   23047kB time=00:01:53.24 bitrate=1667.2kbits/s speed=0.999x    frame= 3357 fps= 29 q=0.0 size=   23113kB time=00:01:53.75 bitrate=1664.5kbits/s speed=0.999x    frame= 3371 fps= 29 q=1.0 size=   23168kB time=00:01:54.31 bitrate=1660.3kbits/s speed=   1x    frame= 3383 fps= 29 q=2.0 size=   23208kB time=00:01:54.77 bitrate=1656.4kbits/s speed=0.999x    frame= 3398 fps= 29 q=2.0 size=   23242kB time=00:01:55.28 bitrate=1651.5kbits/s speed=0.999x    frame= 3413 fps= 29 q=0.0 size=   23292kB time=00:01:55.79 bitrate=1647.8kbits/s speed=   1x    frame= 3429 fps= 29 q=0.0 size=   23380kB time=00:01:56.26 bitrate=1647.4kbits/s speed=0.999x    frame= 3444 fps= 29 q=0.0 size=   23522kB time=00:01:56.77 bitrate=1650.1kbits/s speed=0.999x    frame= 3459 fps= 29 q=2.0 size=   23666kB time=00:01:57.28 bitrate=1653.0kbits/s speed=0.999x    frame= 3474 fps= 29 q=2.0 size=   23801kB time=00:01:57.79 bitrate=1655.2kbits/s speed=0.999x    frame= 3489 fps= 29 q=0.0 size=   23962kB time=00:01:58.30 bitrate=1659.2kbits/s speed=0.999x    frame= 3504 fps= 29 q=1.0 size=   24145kB time=00:01:58.81 bitrate=1664.7kbits/s speed=   1x    frame= 3519 fps= 29 q=0.0 size=   24274kB time=00:01:59.32 bitrate=1666.5kbits/s speed=   1x    frame= 3535 fps= 29 q=0.0 size=   24399kB time=00:01:59.79 bitrate=1668.5kbits/s speed=0.999x    frame= 3550 fps= 29 q=0.0 size=   24486kB time=00:02:00.34 bitrate=1666.7kbits/s speed=   1x    frame= 3565 fps= 29 q=0.0 size=   24557kB time=00:02:00.86 bitrate=1664.5kbits/s speed=   1x    frame= 3580 fps= 29 q=0.0 size=   24614kB time=00:02:01.37 bitrate=1661.3kbits/s speed=   1x    frame= 3592 fps= 29 q=0.0 size=   24647kB time=00:02:01.83 bitrate=1657.2kbits/s speed=0.999x    frame= 3606 fps= 29 q=0.0 size=   24679kB time=00:02:02.34 bitrate=1652.4kbits/s speed=   1x    frame= 3622 fps= 29 q=0.0 size=   24735kB time=00:02:02.85 bitrate=1649.3kbits/s speed=   1x    frame= 3637 fps= 29 q=0.0 size=   24804kB time=00:02:03.36 bitrate=1647.1kbits/s speed=   1x    frame= 3652 fps= 29 q=1.0 size=   24937kB time=00:02:03.87 bitrate=1649.1kbits/s speed=   1x    frame= 3667 fps= 29 q=0.0 size=   25077kB time=00:02:04.38 bitrate=1651.5kbits/s speed=   1x    frame= 3683 fps= 29 q=1.0 size=   25236kB time=00:02:04.90 bitrate=1655.2kbits/s speed=   1x    frame= 3698 fps= 29 q=0.0 size=   25391kB time=00:02:05.41 bitrate=1658.6kbits/s speed=   1x    frame= 3713 fps= 29 q=2.0 size=   25566kB time=00:02:05.92 bitrate=1663.2kbits/s speed=   1x    frame= 3727 fps= 29 q=1.0 size=   25699kB time=00:02:06.38 bitrate=1665.8kbits/s speed=0.999x    frame= 3744 fps= 29 q=2.0 size=   25835kB time=00:02:06.89 bitrate=1667.8kbits/s speed=0.999x    frame= 3759 fps= 29 q=1.0 size=   25919kB time=00:02:07.40 bitrate=1666.5kbits/s speed=0.999x    frame= 3773 fps= 29 q=2.0 size=   25983kB time=00:02:07.91 bitrate=1664.0kbits/s speed=   1x    frame= 3789 fps= 29 q=0.0 size=   26046kB time=00:02:08.43 bitrate=1661.4kbits/s speed=   1x    frame= 3800 fps= 29 q=0.0 size=   26092kB time=00:02:08.94 bitrate=1657.7kbits/s speed=   1x    frame= 3816 fps= 29 q=0.0 size=   26129kB time=00:02:09.40 bitrate=1654.1kbits/s speed=0.999x    frame= 3831 fps= 29 q=0.0 size=   26174kB time=00:02:09.91 bitrate=1650.4kbits/s speed=0.999x    frame= 3846 fps= 29 q=2.0 size=   26238kB time=00:02:10.42 bitrate=1648.0kbits/s speed=0.999x    frame= 3860 fps= 29 q=2.0 size=   26364kB time=00:02:10.93 bitrate=1649.4kbits/s speed=   1x    frame= 3876 fps= 29 q=2.0 size=   26517kB time=00:02:11.44 bitrate=1652.6kbits/s speed=   1x    frame= 3891 fps= 29 q=1.0 size=   26650kB time=00:02:11.95 bitrate=1654.4kbits/s speed=   1x    frame= 3906 fps= 29 q=0.0 size=   26795kB time=00:02:12.47 bitrate=1657.0kbits/s speed=   1x    frame= 3922 fps= 29 q=1.0 size=   26987kB time=00:02:12.98 bitrate=1662.5kbits/s speed=   1x    frame= 3937 fps= 29 q=0.0 size=   27127kB time=00:02:13.49 bitrate=1664.7kbits/s speed=   1x    frame= 3952 fps= 29 q=2.0 size=   27254kB time=00:02:14.00 bitrate=1666.1kbits/s speed=   1x    frame= 3968 fps= 29 q=2.0 size=   27349kB time=00:02:14.46 bitrate=1666.1kbits/s speed=0.999x    frame= 3983 fps= 29 q=1.0 size=   27426kB time=00:02:14.97 bitrate=1664.5kbits/s speed=   1x    frame= 3997 fps= 29 q=0.0 size=   27479kB time=00:02:15.48 bitrate=1661.5kbits/s speed=   1x    frame= 4009 fps= 29 q=2.0 size=   27521kB time=00:02:15.99 bitrate=1657.7kbits/s speed=   1x    frame= 4024 fps= 29 q=2.0 size=   27558kB time=00:02:16.51 bitrate=1653.8kbits/s speed=   1x    frame= 4039 fps= 29 q=2.0 size=   27604kB time=00:02:17.02 bitrate=1650.4kbits/s speed=   1x    frame= 4055 fps= 29 q=0.0 size=   27668kB time=00:02:17.48 bitrate=1648.6kbits/s speed=0.999x    frame= 4070 fps= 29 q=1.0 size=   27784kB time=00:02:17.99 bitrate=1649.4kbits/s speed=0.999x    frame= 4085 fps= 29 q=0.0 size=   27924kB time=00:02:18.50 bitrate=1651.6kbits/s speed=0.999x    frame= 4100 fps= 29 q=2.0 size=   28072kB time=00:02:19.01 bitrate=1654.2kbits/s speed=   1x    frame= 4115 fps= 29 q=1.0 size=   28222kB time=00:02:19.52 bitrate=1656.9kbits/s speed=   1x    frame= 4130 fps= 29 q=2.0 size=   28402kB time=00:02:20.04 bitrate=1661.5kbits/s speed=   1x    frame= 4145 fps= 29 q=1.0 size=   28558kB time=00:02:20.55 bitrate=1664.5kbits/s speed=   1x    frame= 4161 fps= 29 q=2.0 size=   28695kB time=00:02:21.01 bitrate=1667.0kbits/s speed=0.999x    frame= 4176 fps= 29 q=2.0 size=   28788kB time=00:02:21.52 bitrate=1666.3kbits/s speed=0.999x    frame= 4190 fps= 29 q=0.0 size=   28856kB time=00:02:22.03 bitrate=1664.3kbits/s speed=   1x    frame= 4205 fps= 29 q=0.0 size=   28919kB time=00:02:22.54 bitrate=1661.9kbits/s speed=   1x    frame= 4220 fps= 29 q=2.0 size=   28981kB time=00:02:23.05 bitrate=1659.6kbits/s speed=   1x    frame= 4232 fps= 29 q=0.0 size=   29005kB time=00:02:23.56 bitrate=1655.0kbits/s speed=   1x    frame= 4248 fps= 29 q=0.0 size=   29050kB time=00:02:24.03 bitrate=1652.2kbits/s speed=0.999x    frame= 4263 fps= 29 q=2.0 size=   29106kB time=00:02:24.54 bitrate=1649.6kbits/s speed=0.999x    frame= 4278 fps= 29 q=2.0 size=   29211kB time=00:02:25.10 bitrate=1649.2kbits/s speed=   1x    frame= 4294 fps= 29 q=2.0 size=   29370kB time=00:02:25.56 bitrate=1652.8kbits/s speed=0.999x    frame= 4308 fps= 29 q=0.0 size=   29495kB time=00:02:26.07 bitrate=1654.1kbits/s speed=   1x    frame= 4324 fps= 29 q=0.0 size=   29644kB time=00:02:26.58 bitrate=1656.7kbits/s speed=   1x    frame= 4338 fps= 29 q=2.0 size=   29816kB time=00:02:27.09 bitrate=1660.5kbits/s speed=   1x    frame= 4353 fps= 29 q=2.0 size=   29981kB time=00:02:27.60 bitrate=1663.9kbits/s speed=   1x    frame= 4369 fps= 29 q=2.0 size=   30116kB time=00:02:28.07 bitrate=1666.1kbits/s speed=0.999x    frame= 4384 fps= 29 q=1.0 size=   30214kB time=00:02:28.63 bitrate=1665.3kbits/s speed=   1x    frame= 4399 fps= 29 q=0.0 size=   30301kB time=00:02:29.14 bitrate=1664.4kbits/s speed=   1x    frame= 4414 fps= 29 q=0.0 size=   30360kB time=00:02:29.60 bitrate=1662.4kbits/s speed=   1x    frame= 4426 fps= 29 q=2.0 size=   30405kB time=00:02:30.11 bitrate=1659.2kbits/s speed=   1x    frame= 4440 fps= 29 q=1.0 size=   30438kB time=00:02:30.62 bitrate=1655.4kbits/s speed=   1x    frame= 4456 fps= 29 q=2.0 size=   30489kB time=00:02:31.13 bitrate=1652.5kbits/s speed=   1x    frame= 4471 fps= 29 q=0.0 size=   30538kB time=00:02:31.65 bitrate=1649.6kbits/s speed=   1x    frame= 4486 fps= 29 q=2.0 size=   30629kB time=00:02:32.11 bitrate=1649.5kbits/s speed=   1x    frame= 4500 fps= 29 q=1.0 size=   30759kB time=00:02:32.62 bitrate=1651.0kbits/s speed=   1x    frame= 4517 fps= 29 q=2.0 size=   30925kB time=00:02:33.13 bitrate=1654.4kbits/s speed=   1x    frame= 4531 fps= 29 q=1.0 size=   31049kB time=00:02:33.64 bitrate=1655.5kbits/s speed=   1x    frame= 4546 fps= 29 q=0.0 size=   31222kB time=00:02:34.15 bitrate=1659.1kbits/s speed=   1x    frame= 4562 fps= 29 q=0.0 size=   31397kB time=00:02:34.66 bitrate=1662.9kbits/s speed=   1x    frame= 4577 fps= 29 q=2.0 size=   31536kB time=00:02:35.17 bitrate=1664.8kbits/s speed=   1x    frame= 4592 fps= 29 q=2.0 size=   31643kB time=00:02:35.69 bitrate=1665.0kbits/s speed=   1x    frame= 4608 fps= 29 q=2.0 size=   31730kB time=00:02:36.15 bitrate=1664.6kbits/s speed=   1x    frame= 4623 fps= 29 q=0.0 size=   31793kB time=00:02:36.66 bitrate=1662.4kbits/s speed=   1x    frame= 4637 fps= 29 q=2.0 size=   31856kB time=00:02:37.17 bitrate=1660.3kbits/s speed=   1x    frame= 4649 fps= 29 q=2.0 size=   31885kB time=00:02:37.68 bitrate=1656.5kbits/s speed=   1x    frame= 4664 fps= 29 q=2.0 size=   31919kB time=00:02:38.19 bitrate=1652.8kbits/s speed=   1x    frame= 4679 fps= 29 q=0.0 size=   31970kB time=00:02:38.70 bitrate=1650.2kbits/s speed=   1x    frame= 4695 fps= 29 q=2.0 size=   32067kB time=00:02:39.17 bitrate=1650.4kbits/s speed=   1x    frame= 4710 fps= 29 q=0.0 size=   32195kB time=00:02:39.68 bitrate=1651.7kbits/s speed=   1x    frame= 4724 fps= 29 q=2.0 size=   32335kB time=00:02:40.19 bitrate=1653.6kbits/s speed=   1x    frame= 4739 fps= 29 q=1.0 size=   32467kB time=00:02:40.70 bitrate=1655.0kbits/s speed=   1x    frame= 4755 fps= 29 q=2.0 size=   32650kB time=00:02:41.17 bitrate=1659.5kbits/s speed=0.999x    frame= 4770 fps= 29 q=1.0 size=   32819kB time=00:02:41.72 bitrate=1662.4kbits/s speed=   1x    frame= 4785 fps= 29 q=0.0 size=   32948kB time=00:02:42.23 bitrate=1663.7kbits/s speed=   1x    frame= 4801 fps= 29 q=0.0 size=   33072kB time=00:02:42.70 bitrate=1665.2kbits/s speed=0.999x    frame= 4816 fps= 29 q=2.0 size=   33167kB time=00:02:43.21 bitrate=1664.7kbits/s speed=   1x    frame= 4831 fps= 29 q=0.0 size=   33231kB time=00:02:43.72 bitrate=1662.7kbits/s speed=   1x    frame= 4846 fps= 29 q=0.0 size=   33288kB time=00:02:44.23 bitrate=1660.4kbits/s speed=   1x    frame= 4857 fps= 29 q=2.0 size=   33320kB time=00:02:44.74 bitrate=1656.8kbits/s speed=   1x    frame= 4872 fps= 29 q=0.0 size=   33354kB time=00:02:45.25 bitrate=1653.4kbits/s speed=   1x    frame= 4888 fps= 29 q=0.0 size=   33410kB time=00:02:45.72 bitrate=1651.6kbits/s speed=0.999x    frame= 4903 fps= 29 q=0.0 size=   33479kB time=00:02:46.27 bitrate=1649.4kbits/s speed=   1x    frame= 4918 fps= 29 q=1.0 size=   33611kB time=00:02:46.78 bitrate=1650.8kbits/s speed=   1x    frame= 4933 fps= 29 q=2.0 size=   33751kB time=00:02:47.30 bitrate=1652.6kbits/s speed=   1x    frame= 4949 fps= 29 q=2.0 size=   33901kB time=00:02:47.81 bitrate=1654.9kbits/s speed=   1x    frame= 4964 fps= 29 q=2.0 size=   34068kB time=00:02:48.32 bitrate=1658.0kbits/s speed=   1x    frame= 4979 fps= 29 q=2.0 size=   34243kB time=00:02:48.83 bitrate=1661.5kbits/s speed=   1x    frame= 4995 fps= 29 q=1.0 size=   34401kB time=00:02:49.29 bitrate=1664.6kbits/s speed=   1x    frame= 5010 fps= 29 q=0.0 size=   34516kB time=00:02:49.80 bitrate=1665.2kbits/s speed=   1x    frame= 5025 fps= 29 q=2.0 size=   34601kB time=00:02:50.31 bitrate=1664.2kbits/s speed=   1x    frame= 5039 fps= 29 q=0.0 size=   34667kB time=00:02:50.82 bitrate=1662.4kbits/s speed=   1x    frame= 5055 fps= 29 q=1.0 size=   34739kB time=00:02:51.34 bitrate=1660.9kbits/s speed=   1x    frame= 5066 fps= 29 q=0.0 size=   34772kB time=00:02:51.85 bitrate=1657.6kbits/s speed=   1x    frame= 5082 fps= 29 q=0.0 size=   34809kB time=00:02:52.36 bitrate=1654.4kbits/s speed=   1x    frame= 5097 fps= 29 q=0.0 size=   34854kB time=00:02:52.87 bitrate=1651.7kbits/s speed=   1x    frame= 5112 fps= 29 q=2.0 size=   34918kB time=00:02:53.38 bitrate=1649.8kbits/s speed=   1x    frame= 5128 fps= 29 q=0.0 size=   35056kB time=00:02:53.84 bitrate=1651.9kbits/s speed=   1x    frame= 5143 fps= 29 q=2.0 size=   35203kB time=00:02:54.35 bitrate=1654.0kbits/s speed=   1x    frame= 5157 fps= 29 q=1.0 size=   35328kB time=00:02:54.86 bitrate=1655.0kbits/s speed=   1x    frame= 5172 fps= 29 q=3.0 size=   35473kB time=00:02:55.38 bitrate=1656.9kbits/s speed=   1x    frame= 5188 fps= 29 q=1.0 size=   35678kB time=00:02:55.84 bitrate=1662.1kbits/s speed=0.999x    frame= 5203 fps= 29 q=0.0 size=   35819kB time=00:02:56.40 bitrate=1663.4kbits/s speed=   1x    frame= 5218 fps= 29 q=2.0 size=   35945kB time=00:02:56.91 bitrate=1664.5kbits/s speed=   1x    frame= 5234 fps= 29 q=0.0 size=   36046kB time=00:02:57.37 bitrate=1664.8kbits/s speed=   1x    frame= 5249 fps= 29 q=2.0 size=   36119kB time=00:02:57.88 bitrate=1663.3kbits/s speed=   1x    frame= 5264 fps= 29 q=2.0 size=   36174kB time=00:02:58.39 bitrate=1661.1kbits/s speed=   1x    frame= 5275 fps= 29 q=2.0 size=   36212kB time=00:02:58.91 bitrate=1658.1kbits/s speed=   1x    frame= 5290 fps= 29 q=0.0 size=   36250kB time=00:02:59.42 bitrate=1655.1kbits/s speed=   1x    frame= 5305 fps= 29 q=2.0 size=   36296kB time=00:02:59.93 bitrate=1652.5kbits/s speed=   1x    frame= 5321 fps= 29 q=0.0 size=   36360kB time=00:03:00.39 bitrate=1651.1kbits/s speed=   1x    frame= 5336 fps= 29 q=1.0 size=   36476kB time=00:03:00.95 bitrate=1651.3kbits/s speed=   1x    frame= 5351 fps= 29 q=1.0 size=   36616kB time=00:03:01.46 bitrate=1653.0kbits/s speed=   1x    frame= 5366 fps= 29 q=0.0 size=   36759kB time=00:03:01.92 bitrate=1655.2kbits/s speed=   1x    frame= 5381 fps= 29 q=2.0 size=   36906kB time=00:03:02.43 bitrate=1657.2kbits/s speed=   1x    frame= 5396 fps= 29 q=2.0 size=   37083kB time=00:03:02.95 bitrate=1660.5kbits/s speed=   1x    frame= 5411 fps= 29 q=2.0 size=   37239kB time=00:03:03.46 bitrate=1662.8kbits/s speed=   1x    frame= 5427 fps= 29 q=1.0 size=   37382kB time=00:03:03.92 bitrate=1665.0kbits/s speed=0.999x    frame= 5442 fps= 29 q=0.0 size=   37471kB time=00:03:04.43 bitrate=1664.3kbits/s speed=   1x    frame= 5457 fps= 29 q=2.0 size=   37549kB time=00:03:04.99 bitrate=1662.8kbits/s speed=   1x    frame= 5472 fps= 29 q=0.0 size=   37607kB time=00:03:05.45 bitrate=1661.2kbits/s speed=   1x    frame= 5486 fps= 29 q=2.0 size=   37664kB time=00:03:05.96 bitrate=1659.1kbits/s speed=   1x    frame= 5498 fps= 29 q=0.0 size=   37688kB time=00:03:06.47 bitrate=1655.6kbits/s speed=   1x    frame= 5515 fps= 29 q=1.0 size=   37736kB time=00:03:06.99 bitrate=1653.2kbits/s speed=   1x    [flv @ 0x5fab35ba2400] Failed to update header with correct duration.
[flv @ 0x5fab35ba2400] Failed to update header with correct filesize.
frame= 5519 fps= 29 q=-1.0 Lsize=   37809kB time=00:03:07.22 bitrate=1654.4kbits/s speed=   1x    
video:34551kB audio:3017kB subtitle:0kB other streams:0kB global headers:0kB muxing overhead: 0.644661%
[libx264 @ 0x5fab35b73580] frame I:92    Avg QP: 1.23  size: 15636
[libx264 @ 0x5fab35b73580] frame P:2019  Avg QP: 1.22  size:  7528
[libx264 @ 0x5fab35b73580] frame B:3408  Avg QP: 2.32  size:  5500
[libx264 @ 0x5fab35b73580] consecutive B-frames: 13.2% 11.3%  5.9% 69.6%
[libx264 @ 0x5fab35b73580] mb I  I16..4: 10.3% 34.3% 55.4%
[libx264 @ 0x5fab35b73580] mb P  I16..4:  1.0%  1.9%  1.9%  P16..4: 65.4%  0.0%  0.0%  0.0%  0.0%    skip:29.9%
[libx264 @ 0x5fab35b73580] mb B  I16..4:  0.1%  0.1%  0.0%  B16..8: 42.0%  0.0%  0.0%  direct:33.1%  skip:24.8%  L0:30.7% L1:31.6% BI:37.6%
[libx264 @ 0x5fab35b73580] 8x8 transform intra:37.0% inter:10.2%
[libx264 @ 0x5fab35b73580] coded y,uvDC,uvAC intra: 83.8% 98.6% 98.4% inter: 54.6% 58.4% 57.3%
[libx264 @ 0x5fab35b73580] i16 v,h,dc,p: 22% 24% 12% 42%
[libx264 @ 0x5fab35b73580] i8 v,h,dc,ddl,ddr,vr,hd,vl,hu: 19% 24% 16%  5%  9%  7% 10%  6%  4%
[libx264 @ 0x5fab35b73580] i4 v,h,dc,ddl,ddr,vr,hd,vl,hu: 20% 26% 14%  5%  7%  7%  7%  5%  8%
[libx264 @ 0x5fab35b73580] i8c dc,h,v,p: 23% 33% 14% 30%
[libx264 @ 0x5fab35b73580] Weighted P-Frames: Y:0.3% UV:0.3%
[libx264 @ 0x5fab35b73580] kb/s:1513.28
[aac @ 0x5fab35b7eb80] Qavg: 18290.434
Exiting normally, received signal 2.
